<?xml version="1.0" encoding="UTF-8" standalone="no"?>
<!-- Created with Inkscape (http://www.inkscape.org/) -->

<svg
   xmlns:dc="http://purl.org/dc/elements/1.1/"
   xmlns:cc="http://creativecommons.org/ns#"
   xmlns:rdf="http://www.w3.org/1999/02/22-rdf-syntax-ns#"
   xmlns:svg="http://www.w3.org/2000/svg"
   xmlns="http://www.w3.org/2000/svg"
   xmlns:sodipodi="http://sodipodi.sourceforge.net/DTD/sodipodi-0.dtd"
   xmlns:inkscape="http://www.inkscape.org/namespaces/inkscape"
   id="svg3004"
   version="1.1"
   inkscape:version="0.48.0 r9654"
   width="208.65767"
   height="179.32922"
   xml:space="preserve"
   sodipodi:docname="V-Royals Logo (2).pdf"><metadata
     id="metadata3010"><rdf:RDF><cc:Work
         rdf:about=""><dc:format>image/svg+xml</dc:format><dc:type
           rdf:resource="http://purl.org/dc/dcmitype/StillImage" /><dc:title></dc:title></cc:Work></rdf:RDF></metadata><defs
     id="defs3008"><clipPath
       clipPathUnits="userSpaceOnUse"
       id="clipPath3150"><path
         d="m 318.213,1024.7 353.727,0 0,-421.811 -353.727,0 0,421.811 z"
         id="path3152"
         inkscape:connector-curvature="0" /></clipPath><clipPath
       clipPathUnits="userSpaceOnUse"
       id="clipPath3294"><path
         d="m 233.374,869.323 158.729,0 0,-159.79 -158.729,0 0,159.79 z"
         id="path3296"
         inkscape:connector-curvature="0" /></clipPath></defs><sodipodi:namedview
     pagecolor="#ffffff"
     bordercolor="#666666"
     borderopacity="1"
     objecttolerance="10"
     gridtolerance="10"
     guidetolerance="10"
     inkscape:pageopacity="0"
     inkscape:pageshadow="2"
     inkscape:window-width="1920"
     inkscape:window-height="1125"
     id="namedview3006"
     showgrid="false"
     fit-margin-top="0"
     fit-margin-left="0"
     fit-margin-right="0"
     fit-margin-bottom="0"
     inkscape:zoom="0.76862745"
     inkscape:cx="539.94121"
     inkscape:cy="-36.604142"
     inkscape:window-x="0"
     inkscape:window-y="25"
     inkscape:window-maximized="1"
     inkscape:current-layer="g3012" /><g
     id="g3012"
     inkscape:groupmode="layer"
     inkscape:label="V-Royals Logo (2)"
     transform="matrix(1.25,0,0,-1.25,-81.526393,1481.4608)"><g
       id="g3717"
       transform="translate(-654.67347,687.97959)"><g
         transform="matrix(0.21610112,0,0,0.21610112,759.21257,423.23113)"
         id="g3022"><path
           inkscape:connector-curvature="0"
           id="path3024"
           style="fill:#a9afb3;fill-opacity:1;fill-rule:nonzero;stroke:none"
           d="m 0,0 c 5.782,3.357 23.74,7.329 38.236,7.647 16.973,0.374 33.421,-2.371 45.74,-6.269 1.316,0.019 2.064,5.025 7.418,5.102 5.355,0.078 136.41,-1.144 155.848,-1.153 2.776,0 1.842,-6.168 5.215,-2.851 3.372,3.315 46.54,8.902 46.54,8.902 0,0 10.794,-32.308 13.759,-37.637 0.238,-0.426 2.02,-2.553 1.921,-0.743 -0.683,12.533 0.305,22.556 0.305,23.608 0,3.373 5.178,7.668 11.122,7.711 5.944,0.044 85.418,0.332 90.377,0.332 4.959,0 13.232,-2.099 13.629,-8.048 0.985,-4.145 1.183,-17.19 1.183,-17.19 0,0 1.493,1.5 4.894,5.258 3.401,3.758 11.534,12.141 31.797,16.314 14.156,2.98 26.731,3.075 43.274,1.087 16.543,-1.987 40.065,-9.307 40.065,-9.307 l 11.657,-72.248 -10.627,-1.055 c 0,0 11.415,-8.891 13.741,-21.397 2.326,-12.505 1.619,-20.032 -0.134,-26.566 -1.884,-7.025 -6.333,-16.139 -6.333,-16.139 0,0 30.814,-14.712 30.875,-15.262 0.062,-0.551 -114.323,-32.087 -114.323,-32.087 l 6.893,-26.133 c 0,0 -58.976,3.176 -109.905,2.087 -50.93,-1.089 -127.421,-13.269 -208.931,-38.168 C 98.967,-274.144 13.86,-321.634 13.86,-321.634 l -81.238,142.825 -4.361,0.222 c -4.36,0.222 -95.228,0.324 -98.331,0.541 -3.103,0.217 -11.761,4.969 -11.761,8.956 0,3.987 -0.108,53.812 -0.108,53.812 l 12.782,0.341 c 0,0 3.097,1.365 3.097,4.79 0,3.424 -0.245,71.961 0,73.988 0.245,2.026 -0.198,3.256 -1.763,3.469 -1.565,0.211 -14.119,1.915 -14.119,1.915 0,0 0.189,46.931 0.003,51.479 -0.186,4.547 6.995,12.42 14.445,12.496 -1.453,-0.014 81.188,1.332 110.046,0 C -22.777,32.827 -7.649,9.491 -5.968,3.085 -5.283,0.476 -2.697,-1.566 0,0" /></g><g
         transform="matrix(0.21610112,0,0,0.21610112,721.749,426.57246)"
         id="g3026"><path
           inkscape:connector-curvature="0"
           id="path3028"
           style="fill:#231f20;fill-opacity:1;fill-rule:evenodd;stroke:none"
           d="m 0,0 c 0.346,6.293 8.651,8.519 13.477,8.746 6.174,0.29 86.815,-0.549 95.889,-0.744 14.755,-0.148 29.587,-5.889 41.218,-15.871 14.384,-11.137 11.588,-24.567 14.011,-24.567 1.66,0 8.158,14.549 59.308,14.576 20.082,0.01 36.415,-7.023 36.415,-7.023 0,0 1.694,0.039 1.789,1.739 0.1,1.798 5.038,4.14 6.377,4.16 5.235,0.076 118.662,0.039 142.228,-0.133 2.444,-0.018 8.014,-4.196 8.395,-6.853 0.377,-2.655 0.572,-14.479 0.572,-14.479 0.694,-2.717 5.791,13.405 6.58,14.913 1.038,1.983 4.362,4.446 7.018,5.584 2.656,1.139 31.428,6.331 31.428,6.331 0,0 39.365,-99.82 39.774,-101.258 3.366,-11.825 5.42,-12.244 5.686,-7.977 0.267,4.265 -0.96,59.541 -0.96,59.541 0,0 -5.673,0.479 -8.275,1.612 -2.601,1.134 -3.767,5.816 -3.767,5.816 0,0 0.05,19.598 -0.2,22.682 -0.25,3.084 0.912,12.639 8.365,12.99 2.676,0.125 78.886,0.01 81.969,-0.222 3.083,-0.231 9.027,-2.052 8.908,-6.184 0.533,-1.866 0.343,-33.99 0.343,-33.99 0,0 -11.57,-1.059 -13.68,-3.368 -2.666,-1.332 -0.83,-56.913 -0.163,-61.63 0.434,-3.077 1.701,-2.804 6.5,5.994 4.798,8.798 6.111,20.638 6.111,20.638 l 11.734,-2.628 c 0,0 -7.345,10.294 -6.345,34.484 0.491,13.517 10.42,25.793 20.737,33.916 10.765,8.631 29.856,11.767 49.763,11.24 19.908,0.035 45.564,-7.605 45.564,-7.605 l 9.436,-57.524 c 0,0 -13.174,-1.817 -13.973,-4.217 -0.799,-2.399 11.475,-5.996 17.369,-24.95 2.853,-9.348 3.248,-22.222 -0.512,-32.041 -3.6,-10.726 -8.312,-14.52 -8.312,-14.52 0,0 24.254,-8.88 24.109,-10.708 -0.131,-1.65 -107.073,-29.269 -107.073,-29.269 l 4.708,-21.744 c -53.562,2.086 -94.833,5.797 -166.48,-3.71 -159.342,-18.973 -284.918,-95.118 -284.918,-95.118 l -82.168,142.75 c 0,0 -1.701,0.575 -1.737,-0.405 -0.035,-0.981 -1.041,-3.595 -5.595,-3.595 -3.554,-0.954 -90.15,1.018 -92.168,1 -4.08,-0.037 -11.18,4.504 -11.25,7.75 -0.072,3.245 0.25,37.5 0.25,37.5 0,0 17.933,0.439 17.926,2.57 -0.01,3.293 2.163,90.653 -0.113,93.311 -2.277,2.656 -16.868,3.494 -16.868,3.494 L 0,0 z" /></g><g
         transform="matrix(0.21610112,0,0,0.21610112,723.85283,425.0547)"
         id="g3030"><path
           inkscape:connector-curvature="0"
           id="path3032"
           style="fill:#ffffff;fill-opacity:1;fill-rule:evenodd;stroke:none"
           d="m 0,0 c 0.025,2.732 2.039,6.191 5.142,6.105 6.409,-0.174 84.086,0.133 91.33,-0.556 11.036,0 33.236,-6.735 41.426,-16.706 11.752,-13.681 9.373,-27.471 9.718,-29.195 0.345,-1.724 1.379,-1.726 2.759,-0.69 1.379,1.036 19.932,23.119 57.253,22.419 36.035,-0.676 43.428,-9.215 43.428,-9.215 0,0 5.289,-0.103 5.289,3 0,3.104 0.258,4.145 3.707,4.49 3.126,0.312 114.812,-0.533 136.236,-0.689 2.221,-0.016 6.207,-2.414 6.552,-4.83 0.345,-2.414 -0.262,-32.673 -0.262,-32.673 0,0 2.936,-4.528 4.401,-0.437 1.465,4.092 16.381,34.052 15.52,32.766 -0.86,-1.285 2.07,3.794 4.484,4.828 2.414,1.035 22.776,5.287 22.776,5.287 l 40.479,-104.705 c 0,0 4.676,-10.395 6.521,-12.145 1.846,-1.75 12.438,-2.088 12.41,2.12 -0.027,4.208 -0.511,78.617 -0.511,78.617 0,0 0.737,3.746 -4.605,5.089 -5.575,0.243 -7.514,0.485 -7.514,0.485 0,0 -0.416,16.008 -0.393,18.731 0.023,2.722 2.332,5.265 4.756,5.508 2.423,0.242 68.509,-0.313 70.594,-0.366 2.085,-0.054 5.996,-2.058 5.269,-4.483 0.485,-1.696 0,-16.966 0,-16.966 0,0 -11.15,-1.696 -13.573,-2.909 -2.424,-1.211 -0.969,-83.134 0.485,-85.558 1.453,-2.423 14.3,-2.907 18.663,5.091 4.363,7.998 9.34,22.456 9.34,22.456 0,0 29.197,-5.49 30.651,-3.066 1.455,2.424 -19.631,10.665 -21.086,34.174 -1.165,7.632 1.939,22.785 9.452,31.752 6.058,8.726 24.722,18.177 44.112,17.935 18.405,1.039 43.628,-5.816 43.628,-5.816 l 6.303,-43.627 c 0,0 -21.331,-2.425 -22.057,-4.607 -0.727,-2.18 24.963,-15.997 27.529,-32.911 2.04,-10.717 1.363,-21.222 -2.055,-30.147 -3.661,-10.867 -19.217,-20.719 -19.217,-20.719 0,0 22.529,-2.447 22.584,-3.961 0.055,-1.504 -95.737,-24.48 -95.737,-24.48 l 5.817,-17.694 c 0,0 -62.532,5.819 -158.752,-4.502 -144.856,-17.247 -277.643,-90.708 -277.643,-90.708 l -91.741,154.86 c 0,0 0.098,-12.209 0,-14.143 -0.098,-1.934 -2.414,-5.517 -6.555,-5.517 -3.23,-0.867 -82.738,-0.171 -84.499,0.343 -1.761,0.514 -4.764,0.498 -4.828,3.449 -0.065,2.951 0.048,25.39 0.048,25.39 0,0 15.084,0.417 18.232,2.893 3.146,2.475 2.069,107.262 0,109.677 -2.071,2.415 -16.211,3.794 -16.211,3.794 0,0 0.325,20.665 0.345,22.762" /></g><g
         transform="matrix(0.21610112,0,0,0.21610112,814.04855,403.04698)"
         id="g3034"><path
           inkscape:connector-curvature="0"
           id="path3036"
           style="fill:#15366f;fill-opacity:1;fill-rule:evenodd;stroke:none"
           d="M 0,0 C 6.796,-0.584 13.294,-0.422 22.555,0 19.789,8.97 12.807,30.047 11.59,30.857 10.672,31.06 1.674,6.689 0,0 m 87.392,61.716 0,9.117 c 1.759,2.247 4.135,2.087 6.89,2.105 16.3,0.097 34.255,0.196 51.056,0 2.579,-0.032 4.923,0.091 6.577,-2.105 l 0,-9.117 c -4.875,-0.271 -9.585,-0.723 -13.468,-2.104 -0.28,-0.502 -0.61,-1.007 -0.939,-1.402 -1.137,-1.368 -1.934,-2.81 -2.194,-5.61 -0.651,-7.052 -0.629,-84.981 0.94,-91.524 3.375,-3.477 9.749,-3.535 15.348,-3.507 6.603,0.035 12.991,1.135 16.915,4.208 2.973,2.328 5.621,6.463 7.518,10.17 2.111,4.124 3.581,8.474 5.324,12.273 3.061,-0.898 6.299,-1.599 9.084,-2.806 3.622,0.998 7.233,3.232 10.651,0.702 1.93,-6.419 5.446,-12.419 9.396,-17.533 1.853,-2.4 3.903,-4.99 6.265,-7.014 2.215,-1.897 5.075,-4.108 7.516,-5.258 10.272,-4.847 23.764,-1.716 27.877,7.362 2.797,6.174 1.289,13.554 -1.878,17.884 -6.614,9.041 -19.128,12.549 -29.443,18.234 -2.273,1.253 -4.681,2.465 -6.891,3.858 -8.542,5.376 -16.503,14.296 -16.915,14.727 -1.759,1.847 -4.424,7.624 -4.699,11.573 -0.552,7.961 0.785,16.637 3.446,22.09 11.616,23.813 50.33,29.244 78.934,17.533 0.775,-11.494 2.643,-20.795 4.385,-30.506 -4.267,-0.601 -8.088,-1.699 -12.216,-2.456 -3.521,10.718 -10.729,24.631 -23.493,26.301 -4.098,0.535 -9.707,-0.067 -13.783,-2.103 -8.827,-4.413 -14.07,-15.79 -5.324,-22.795 0.611,-0.49 27.201,-15.322 38.214,-22.091 3.005,-1.847 5.856,-3.924 8.771,-6.311 3.147,-2.578 4.63,-4.408 7.204,-7.365 7.549,-8.671 13.299,-52.421 -35.082,-59.612 -17.44,-2.593 -34.691,0.904 -48.236,6.311 -2.584,6.108 -3.329,14.274 -4.699,21.742 -1.314,0.22 -1.077,-1.71 -1.254,-2.455 -1.408,-5.969 -2.842,-13.393 -4.698,-19.287 -49.705,0.268 -99.806,-0.349 -149.721,-0.35 -2.822,0 -6.094,-0.725 -8.457,1.402 -0.7,2.491 -0.129,6.404 -0.314,9.469 4.036,0.856 8.85,0.846 10.964,3.856 -2.523,9.102 -5.512,17.676 -9.085,25.599 l -33.2,0 c -1.907,-4.402 -4.678,-12.157 -6.579,-18.234 -0.734,-2.345 -1.912,-5.223 -1.566,-6.664 0.966,-4.035 9.744,-3.41 13.467,-4.557 l 0,-9.118 c -2.727,-2.685 -7.112,-1.753 -11.275,-1.753 l -25.058,0 c -4.157,0 -8.402,-0.774 -11.589,1.051 -1.299,2.053 -0.328,6.65 -0.627,9.82 5.069,0.667 10.729,1.357 14.095,4.557 0.476,0.455 0.819,0.893 1.254,1.404 1.182,1.388 39.218,91.807 46.671,111.159 3.736,0.949 8.47,1.958 11.589,2.807 2.626,0.711 1.903,0.064 3.131,-2.807 3.064,-7.15 38.759,-102.895 40.408,-106.25 2.86,-5.828 6.934,-10.065 15.034,-10.52 2.729,-0.153 6.768,0.568 10.337,1.052 3.288,0.447 7.107,0.835 8.769,3.507 2.23,3.58 2.439,92.479 0.313,96.783 -2.25,4.561 -9.474,3.666 -15.66,4.558" /></g><g
         transform="matrix(0.21610112,0,0,0.21610112,761.17859,405.02355)"
         id="g3038"><path
           inkscape:connector-curvature="0"
           id="path3040"
           style="fill:#15366f;fill-opacity:1;fill-rule:evenodd;stroke:none"
           d="M 0,0 C -0.182,-45.222 24.286,-55.646 38.112,-55.252 50.453,-54.898 71.13,-44.437 72.185,0 73.004,34.6 59.187,52.893 35.476,52.893 21.953,52.893 0.174,44.045 0,0 m 35.896,-66.604 c -44.367,-0.009 -60.372,23.385 -66.241,50.473 -2.162,9.991 -2.01,22.281 0.313,31.209 7.77,29.834 30.662,50.537 63.586,50.847 31.694,0.297 59.483,-13.794 69.554,-44.241 2.275,-6.878 3.806,-27.755 0.921,-38.867 -2.46,-9.474 -17.195,-49.411 -68.133,-49.421" /></g><g
         transform="matrix(0.21610112,0,0,0.21610112,794.01278,418.36062)"
         id="g3042"><path
           inkscape:connector-curvature="0"
           id="path3044"
           style="fill:#15366f;fill-opacity:1;fill-rule:evenodd;stroke:none"
           d="m 0,0 0,-9.469 c -4.147,-0.383 -8.391,-0.658 -10.963,-2.804 1.576,-6.534 17.905,-35.235 21.611,-41.377 3.443,5.213 6.452,11.056 9.399,16.832 3.548,6.947 7.764,14.99 10.338,23.493 1.806,3.715 -8.127,3.294 -13.157,3.856 0.186,3.067 -0.386,6.979 0.313,9.469 2.707,2.785 4.044,1.989 8.326,1.989 8.414,0 24.816,-0.393 33.547,-0.393 4.16,0 4.675,1.17 7.303,-1.596 0.701,-2.49 0.129,-6.402 0.314,-9.469 C 49.931,-9.61 45.18,-21.705 38.526,-32.611 37.973,-33.52 22.171,-60.977 21.614,-62.067 c -1.233,-2.413 -2.112,-4.459 -3.134,-7.363 0.725,-11.619 0.011,-39.477 1.065,-42.426 0.826,-2.31 5.878,-2.382 8.648,-2.811 3.023,-0.467 6.18,-0.444 9.394,-0.701 -0.183,-2.949 0.386,-6.741 -0.314,-9.115 -1.765,-2.381 -4.82,-1.755 -7.514,-1.755 l -53.25,0 c -2.631,0 -5.396,-0.464 -7.205,1.755 l 0,9.115 c 6.485,0.913 14.735,-0.193 16.915,4.91 0.18,0.424 0.147,0.68 0.313,1.052 1.67,3.739 2.109,33.697 0.626,37.17 -4.828,11.311 -11.214,21.994 -17.227,32.611 -5.626,9.934 -11.014,19.781 -16.602,26.3 -3.699,2.287 -8.3,3.566 -13.781,3.856 0.083,4.582 -1.673,11.657 3.422,11.852 C -40.346,2.186 -24.471,1.834 -6.975,1.989 -4.84,2.01 -1.471,1.863 0,0" /></g><g
         transform="matrix(0.21610112,0,0,0.21610112,737.496,408.05489)"
         id="g3046"><path
           inkscape:connector-curvature="0"
           id="path3048"
           style="fill:#15366f;fill-opacity:1;fill-rule:evenodd;stroke:none"
           d="m 0,0 0,29.807 c 0,9.826 -0.508,19.828 0.626,28.752 1.157,2.051 2.67,1.806 4.386,2.105 10.361,1.805 20.05,-2.75 24.744,-9.818 1.32,-1.987 3.247,-5.491 4.074,-8.416 C 36.518,32.91 35.278,20.289 31.322,12.975 25.744,2.652 14.64,-1.871 0,0 m 381.924,-86.759 c -97.123,-3.225 -254.878,-19.87 -254.878,-19.87 L 46.984,-5.961 c 5.408,3.248 10.815,5.828 15.348,9.817 4.246,3.74 8.397,9.146 10.649,15.08 1.69,4.453 2.591,11.414 2.507,17.532 -0.106,7.563 -4.095,17.193 -6.579,20.338 -11.352,14.38 -27.84,18.844 -50.429,19.637 -23.734,0.834 -49.474,-0.63 -72.355,0 -4.284,-1.048 -2.979,-8.352 -3.132,-14.026 5.61,-0.761 15.1,-0.271 17.854,-5.261 0.391,-0.707 0.983,-113.377 0.94,-115.014 0.007,-2.653 -1.339,-4.242 -1.565,-4.58 -3.148,-4.715 -18.213,-4.567 -18.213,-4.567 0,0 0.039,-10.852 0.045,-11.894 0.006,-1.042 0.121,-2.055 2.192,-2.104 2.07,-0.049 59.909,-0.207 73.608,0 1.504,-0.008 2.459,1.123 2.461,2.342 10e-4,1.219 0.087,8.516 0.087,12.14 -7.658,0.175 -14.788,-0.989 -18.21,3.402 -3.335,4.279 -2.441,41.084 -1.879,47.339 6.965,0.474 10.054,-2.73 12.841,-6.661 3.852,-5.432 6.995,-12.457 10.025,-17.885 4.637,-7.573 8.406,-15.041 13.017,-21.493 l 64.942,-106.846 c 0,0 108.061,49.003 288.323,62.036 91.58,6.624 152.311,0.816 152.311,0.816 l 72.021,15.666 c 0,0 -134.748,6.613 -231.869,3.388" /></g><g
         transform="matrix(0.21610112,0,0,0.21610112,759.95827,370.17893)"
         id="g3050"><path
           inkscape:connector-curvature="0"
           id="path3052"
           style="fill:#15366f;fill-opacity:1;fill-rule:evenodd;stroke:none"
           d="m 0,0 c 0,0 132.444,51.933 301.275,63.845 77.871,5.495 136.554,1.926 136.554,1.926 l 4.83,-12.966 c 0,0 -71.497,7.614 -154.401,-4.719 C 109.067,21.43 20.864,-34.528 20.864,-34.528 L 0,0 z" /></g><g
         transform="matrix(0.21610112,0,0,0.21610112,774.53107,404.86484)"
         id="g3054"><path
           inkscape:connector-curvature="0"
           id="path3056"
           style="fill:#231f20;fill-opacity:1;fill-rule:nonzero;stroke:none"
           d="m 0,0 c 0,-24.42 -11.892,-44.216 -26.562,-44.216 -14.67,0 -26.563,19.796 -26.563,44.216 0,24.42 11.893,44.216 26.563,44.216 C -11.892,44.216 0,24.42 0,0" /></g><g
         transform="matrix(0.21610112,0,0,0.21610112,738.85571,419.27103)"
         id="g3058"><path
           inkscape:connector-curvature="0"
           id="path3060"
           style="fill:#231f20;fill-opacity:1;fill-rule:nonzero;stroke:none"
           d="m 0,0 c 0,0 -0.368,2.557 1.735,2.871 2.103,0.315 14.802,0.44 18.64,-10.415 2.192,-6.907 4.031,-23.733 -1.974,-31.028 -6.005,-7.295 -14.781,-8.332 -16.007,-8.333 -2.023,-10e-4 -2.624,2.05 -2.624,2.05 L 0,0 z" /></g><g
         transform="matrix(0.21610112,0,0,0.21610112,740.3893,416.70146)"
         id="g3062"><path
           inkscape:connector-curvature="0"
           id="path3064"
           style="fill:#a9afb3;fill-opacity:1;fill-rule:nonzero;stroke:none"
           d="M 0,0 C 0,0 0.272,3.867 1.143,4.174 3.287,4.93 5.045,1.766 6.469,-2.008 7.41,-6.24 8.199,-16.553 5.622,-21.025 3.045,-25.496 2.205,-24.807 1.679,-24.807 0.811,-24.809 0.158,-25.153 0.187,-22.895 0.215,-20.636 0,0 0,0" /></g><g
         transform="matrix(0.21610112,0,0,0.21610112,800.47448,396.18408)"
         id="g3066"><path
           inkscape:connector-curvature="0"
           id="path3068"
           style="fill:#231f20;fill-opacity:1;fill-rule:nonzero;stroke:none"
           d="M 0,0 C 0,0 1.133,29.021 1.322,32.256 1.511,35.492 26.772,77 26.772,77 c 0,0 3.916,3.205 7.071,3 3.155,-0.205 20.965,0.01 20.965,0.01 0,0 -32.852,-74.81 -34.632,-79.908 -1.029,-3.743 -4.345,-3.44 -4.345,-3.44 0,0 -12.585,0.199 -13.743,0.155 C 0,-3.262 0,0 0,0" /></g><g
         transform="matrix(0.21610112,0,0,0.21610112,783.38151,394.8822)"
         id="g3070"><path
           inkscape:connector-curvature="0"
           id="path3072"
           style="fill:#231f20;fill-opacity:1;fill-rule:evenodd;stroke:none"
           d="m 0,0 c 0,0 5.902,8.333 9.659,24.848 3.757,16.514 2.069,29.253 1.148,33.856 -0.921,4.604 0.245,6.394 1.889,2.974 1.644,-3.42 14.112,-29.351 14.112,-29.351 0,0 0.396,-19.831 0.299,-24.121 C 27.011,3.916 26.54,-0.096 20.099,0.002 13.658,0.1 0,0 0,0" /></g><g
         transform="matrix(0.21610112,0,0,0.21610112,775.16587,389.51006)"
         id="g3074"><path
           inkscape:connector-curvature="0"
           id="path3076"
           style="fill:#231f20;fill-opacity:1;fill-rule:evenodd;stroke:none"
           d="m 0,0 c -20.286,-5.191 -45.455,-4.133 -50.994,-0.69 1.286,-1.834 8.014,-11.426 8.014,-11.426 L 47.072,-5.827 163.02,0.461 C 163.02,0.461 62.934,-0.12 0,0" /></g><g
         transform="matrix(0.21610112,0,0,0.21610112,783.91005,395.79852)"
         id="g3078"><path
           inkscape:connector-curvature="0"
           id="path3080"
           style="fill:#231f20;fill-opacity:1;fill-rule:nonzero;stroke:none"
           d="m 0,0 c -1.951,-2.763 -6.743,-9.844 -15.184,-16.136 -15.04,-11.199 -25.739,-13.382 -28.217,-13.395 -2.478,-0.014 50.931,0 50.931,0 L 7.822,-2.032 C 7.822,-2.032 1.951,2.763 0,0" /></g><g
         transform="matrix(0.21610112,0,0,0.21610112,750.13855,405.98081)"
         id="g3082"><path
           inkscape:connector-curvature="0"
           id="path3084"
           style="fill:#231f20;fill-opacity:1;fill-rule:evenodd;stroke:none"
           d="m 0,0 c -0.668,0.863 0,1.166 0,1.166 9.31,5.834 12.529,9.893 12.529,9.893 0,0 1.44,1.636 0.561,-0.924 -2.35,-8.713 -3.227,-12.078 -0.277,-24.157 0.372,-1.592 0.102,-2.097 -0.921,-0.738 C 10.868,-13.402 0.668,-0.865 0,0" /></g><g
         transform="matrix(0.21610112,0,0,0.21610112,820.16735,394.96726)"
         id="g3086"><path
           inkscape:connector-curvature="0"
           id="path3088"
           style="fill:#231f20;fill-opacity:1;fill-rule:nonzero;stroke:none"
           d="m 0,0 c -1.393,-1.393 -31.843,-1.958 -33.664,-0.888 -1.821,1.071 5.601,16.742 5.601,16.742 l 22.921,0 C -5.142,15.854 1.393,1.393 0,0" /></g><g
         transform="matrix(0.21610112,0,0,0.21610112,859.74361,401.01513)"
         id="g3090"><path
           inkscape:connector-curvature="0"
           id="path3092"
           style="fill:#231f20;fill-opacity:1;fill-rule:nonzero;stroke:none"
           d="m 0,0 -1.324,-1.35 c 0,0 5.777,-19.635 12.448,-25.94 6.091,-5.757 16.155,-6.887 20.128,-2.142 5.066,6.052 0.53,12.267 -5.826,17.299 C 19.069,-7.101 0,0 0,0" /></g><g
         transform="matrix(0.21610112,0,0,0.21610112,870.75863,408.20091)"
         id="g3094"><path
           inkscape:connector-curvature="0"
           id="path3096"
           style="fill:#231f20;fill-opacity:1;fill-rule:nonzero;stroke:none"
           d="m 0,0 1.144,1.506 c 0,0 -6.418,19.611 -13.183,24.558 -6.765,4.949 -17.048,3.543 -20.394,-1.662 -4.268,-6.639 1.422,-12.729 8.359,-16.925 C -17.137,3.281 0,0 0,0" /></g><g
         transform="matrix(0.21610112,0,0,0.21610112,798.25776,414.88908)"
         id="g3098"><path
           inkscape:connector-curvature="0"
           id="path3100"
           style="fill:#231f20;fill-opacity:1;fill-rule:nonzero;stroke:none"
           d="m 0,0 c 1.818,0.011 1.982,0.008 1.428,-1.537 -0.332,-0.922 -7.112,-17.762 -8.785,-22.018 -1.674,-4.256 -2.526,0.33 -2.526,0.33 1.566,-4.166 -7.164,15.495 -9.345,20.847 -0.604,1.482 -0.194,2.487 1.219,2.487 C -16.596,0.109 -1.818,-0.012 0,0" /></g><g
         transform="matrix(0.21610112,0,0,0.21610112,739.23473,401.29898)"
         id="g3102"><path
           inkscape:connector-curvature="0"
           id="path3104"
           style="fill:#231f20;fill-opacity:1;fill-rule:nonzero;stroke:none"
           d="m 0,0 0,-24.596 c 0,-4.499 15.417,-1.969 15.417,-1.969 L 0,0 z" /></g><g
         transform="matrix(0.21610112,0,0,0.21610112,765.21834,404.86484)"
         id="g3106"><path
           inkscape:connector-curvature="0"
           id="path3108"
           style="fill:#a9afb3;fill-opacity:1;fill-rule:nonzero;stroke:none"
           d="m 0,0 c 0,-17.387 8.504,-33.077 16.88,-33.077 8.375,0 16.88,15.69 16.88,33.077 0,17.387 -8.505,33.137 -16.88,33.137 C 8.504,33.137 0,17.387 0,0" /></g><g
         transform="matrix(0.21610112,0,0,0.21610112,802.38311,397.58494)"
         id="g3110"><path
           inkscape:connector-curvature="0"
           id="path3112"
           style="fill:#a9afb3;fill-opacity:1;fill-rule:nonzero;stroke:none"
           d="m 0,0 c -0.594,0.796 0.361,21.595 1.073,24.518 0.712,2.922 20.213,37.832 22,39.17 1.787,1.339 11.474,3.642 9.757,-0.326 C 31.113,59.395 6.352,0.857 5.994,0.128 5.637,-0.602 0.594,-0.796 0,0" /></g><g
         transform="matrix(0.21610112,0,0,0.21610112,783.38151,392.92042)"
         id="g3114"><path
           inkscape:connector-curvature="0"
           id="path3116"
           style="fill:#a9afb3;fill-opacity:1;fill-rule:nonzero;stroke:none"
           d="m 0,0 c 0,0 -2.272,-5.69 -9.488,-9.619 -5.736,-4.004 -12.358,-6.537 -12.358,-6.537 L 0,-15.784 0,0 z" /></g><g
         transform="matrix(0.21610112,0,0,0.21610112,787.63198,401.40638)"
         id="g3118"><path
           inkscape:connector-curvature="0"
           id="path3120"
           style="fill:#a9afb3;fill-opacity:1;fill-rule:nonzero;stroke:none"
           d="m 0,0 c 1,-0.333 1,-17.99 1,-17.99 0,0 -0.014,-4.603 -2.673,-4.603 l -6.528,0 c 0,0 3.451,3.325 4.823,8.65 C -2.007,-8.619 -1,0.333 0,0" /></g><g
         transform="matrix(0.21610112,0,0,0.21610112,865.82039,411.34809)"
         id="g3122"><path
           inkscape:connector-curvature="0"
           id="path3124"
           style="fill:#a9afb3;fill-opacity:1;fill-rule:nonzero;stroke:none"
           d="M 0,0 C -2.284,2.365 -4.57,5.954 -1.828,7.62 0.914,9.287 4.186,8.306 6.471,6.478 8.756,4.65 13.48,-5.86 13.48,-5.86 13.48,-5.86 2.284,-2.365 0,0" /></g><g
         transform="matrix(0.21610112,0,0,0.21610112,861.77144,398.96617)"
         id="g3126"><path
           inkscape:connector-curvature="0"
           id="path3128"
           style="fill:#a9afb3;fill-opacity:1;fill-rule:nonzero;stroke:none"
           d="m 0,0 c 0,0 9.597,-4.319 12.339,-6.716 2.742,-2.396 2.538,-7.24 1.371,-8.109 -1.167,-0.869 -4.205,0.024 -7.041,2.186 C 3.833,-10.477 0,0 0,0" /></g><g
         transform="matrix(0.21610112,0,0,0.21610112,814.96255,395.98382)"
         id="g3130"><path
           inkscape:connector-curvature="0"
           id="path3132"
           style="fill:#ababa9;fill-opacity:1;fill-rule:nonzero;stroke:none"
           d="m 0,0 1.143,5.146 10.282,0 L 13.71,0 0,0 z" /></g><g
         transform="matrix(0.21610112,0,0,0.21610112,815.74548,404.46789)"
         id="g3134"><path
           inkscape:connector-curvature="0"
           id="path3136"
           style="fill:#231f20;fill-opacity:1;fill-rule:nonzero;stroke:none"
           d="M 0,0 3.231,9.991 6.997,0 0,0 z" /></g><g
         transform="matrix(0.21610112,0,0,0.21610112,746.48899,443.7581)"
         id="g3138"><path
           inkscape:connector-curvature="0"
           id="path3140"
           style="fill:#a9afb3;fill-opacity:1;fill-rule:nonzero;stroke:none"
           d="m 0,0 50.343,81.326 c 0,0 40.711,8.513 65.21,9.368 24.5,0.856 64.259,-3.332 64.259,-3.332 l 7.018,23.507 -2.018,0 c 4.356,24.391 6.274,24.688 10.31,33.568 4.035,8.879 16.371,20.267 16.371,20.267 l -2.018,27.375 25.319,-0.249 -4.879,21.817 c 0,0 33.435,-16.668 39.147,-18.571 5.713,-1.903 18.214,-0.78 18.214,-0.78 0,0 -0.331,30.137 -0.673,40.134 -0.342,9.997 5.668,14.366 13.381,12.332 7.714,-2.035 105.454,-29.255 110.387,-30.824 4.932,-1.569 12.776,-9.983 12.604,-17.158 0.148,-3.601 0.788,-36.467 0.788,-36.467 0,0 8.938,-0.418 13.129,-1.394 4.191,-0.976 15.716,-4.024 16.344,-7.969 0.628,-3.944 -9.7,-14.706 -10.478,-16.948 -0.777,-2.242 -1.007,-4.439 1.297,-5.668 2.304,-1.229 27.97,-15.614 31.109,-19.465 3.138,-3.85 2.615,-9.723 -0.381,-11.189 -2.996,-1.466 -19.036,-8.969 -21.547,-10.538 -2.511,-1.57 -3.117,-2.465 -2.287,-4.708 0.83,-2.244 6.992,-15.71 6.278,-24.44 0,-5.156 -4.664,-5.362 -7.175,-6.502 -2.51,-1.139 -14.76,0.448 -14.76,0.448 L 426.384,38.229 426.36,-82.12 c 0,0 8.807,-12.754 15.014,-29.889 6.207,-17.135 11.619,-41.226 10.731,-42.724 -0.888,-1.496 -4.396,-6.86 -4.396,-6.86 0,0 0.33,-13.847 -2.437,-22.398 -1.824,-5.64 -8.036,-15.6 -13.34,-15.94 -5.304,-0.34 -18.505,18.117 -18.505,18.117 0,0 -7.625,3.326 -10.866,0 -3.241,-3.326 -9.416,-13.755 -22.154,-17.272 -8.707,-2.405 -12.278,-0.985 -15.875,1.871 -3.598,2.857 -3.464,16.658 -3.427,24.278 0.037,7.619 -6.942,4.326 -19.967,4.012 -3.905,-0.094 -8.689,1.026 -13.659,2.27 -4.97,1.244 -9.555,3.074 -8.447,9.168 1.107,6.095 13.072,17.35 13.072,17.35 l -4.625,7.777 11.082,11.378 c 3.247,2.854 2.604,3.621 0.586,3.322 -3.562,-0.528 -5.525,-4.581 -25.012,-8.403 l -8.157,22.792 c 0,0 -3.719,4.992 -4.773,5.375 -13.243,0.34 -27.833,3.045 -27.833,3.045 L 239.823,-95.249 50.049,-97.861 37.122,-85.013 37.016,-0.219 0,0 z" /></g><g
         transform="matrix(0.21610112,0,0,0.21610112,749.27224,445.42149)"
         id="g3142"><path
           inkscape:connector-curvature="0"
           id="path3144"
           style="fill:#15366f;fill-opacity:1;fill-rule:nonzero;stroke:none"
           d="m 0,0 c 1.386,0.926 41.109,66.518 41.109,66.518 0,0 25.225,9.052 63.1,9.976 37.877,0.925 66.928,-4.645 66.928,-4.645 0,0 2.761,14.729 5.312,22.381 3.234,9.702 8.316,14.32 8.316,14.32 l -7.853,-1.847 c 0,0 6.006,22.634 11.086,31.871 5.081,9.239 16.166,16.168 16.166,16.168 l -2.309,24.944 26.792,-0.463 -5.082,17.09 20.786,-9.7 c 0,0 8.314,-5.542 12.935,-6.004 4.617,-0.463 32.776,-0.08 32.776,-0.08 0,0 -3.163,0.635 -6.856,1.559 -3.697,0.924 -4.324,6.677 -4.324,11.759 l 0,27.684 c 0,11.285 3.346,13.121 13.047,10.812 5.08,-0.924 92.794,-25.378 97.967,-26.95 12.092,-3.673 15.754,-11.164 15.845,-18.338 0.101,-7.974 0.572,-36.921 0.572,-36.921 0,0 4.53,0.48 12.303,-0.604 7.774,-1.084 14.108,-2.679 15.206,-5.429 1.099,-2.75 -4.157,-8.223 -7.964,-11.945 -3.576,-3.492 -1.333,-13.214 1.449,-14.154 2.781,-0.94 30.759,-10.186 31.129,-19.871 0.244,-6.428 -11.565,-7.629 -15.927,-10.135 -4.363,-2.506 -12.721,-7.814 -11.334,-10.586 1.385,-2.771 11.986,-16.89 5.297,-25.631 -2.534,-3.311 -7.801,-0.78 -14.957,-0.268 -6.467,0.462 -6.024,-5.325 -6.024,-5.325 l -0.693,-1.854 -7.379,1.383 0.354,-134.962 c 0,0 11.33,-20.107 16.41,-33.964 5.084,-13.857 9.73,-35.549 8.693,-38.114 -1.037,-2.564 -3.299,-6.347 -3.299,-6.347 0,0 -0.198,-13.961 -1.423,-17.065 -1.224,-3.101 -5.756,-16.16 -9.444,-16.353 -3.689,-0.196 -13.824,16.906 -16.923,17.955 -3.099,1.049 -4.101,0.674 -10.548,0.218 -6.446,-0.455 -10.983,-7.484 -15.001,-12.232 -4.017,-4.748 -12.067,-6.699 -12.067,-6.699 0,0 -8.44,-1.787 -9.851,4.115 -1.231,5.149 -0.301,14.598 -0.301,14.598 0,0 -1.025,10.008 -1.017,11.687 0.008,1.679 -4.788,4.661 -7.568,4.274 -2.781,-0.388 -3.779,-3.274 -10.979,-4.274 -7.2,-1 -11.265,-0.002 -16.488,0.68 -5.607,0.73 -10.225,6.066 -5.416,9.428 4.808,3.361 13.222,14.22 13.222,14.22 l -4.745,7.162 c 0,0 11.892,13.327 14.969,18.508 0.689,1.16 -0.741,1.759 -0.741,1.759 -0.849,2.037 -31.277,-8.578 -31.277,-8.578 0,0 -0.422,8.989 -9.867,25.393 -9.444,16.403 -17.618,21.83 -17.618,21.83 L 250.2,-96.206 c 0,0 -11.06,13.018 -19.635,20.131 -6.026,4.999 -20.38,1.989 -25.351,-4.722 -4.971,-6.711 -5.068,-17.314 -5.068,-17.314 l -169.354,0 c 0,0 -0.438,87.886 -0.769,91.183 -0.462,1.385 24.424,5.905 24.532,6.984 C 54.663,1.135 35.105,-0.461 24.942,-0.923 14.781,-1.384 0,0 0,0" /></g><g
         transform="matrix(0.21610112,0,0,0.21610112,701.92541,272.5618)"
         id="g3146"><g
           id="g3148" /><g
           id="g3154"><g
             id="g3156"
             clip-path="url(#clipPath3150)"><g
               id="g3158"
               transform="translate(460.6167,957.416)"><path
                 inkscape:connector-curvature="0"
                 id="path3160"
                 style="fill:#231f20;fill-opacity:1;fill-rule:nonzero;stroke:none"
                 d="M 0,0 C -0.621,2.472 -1.51,5.337 -2.649,7.301 L -19.606,7.149 c 1.185,-2.32 5.325,-6.801 8.15,-7.658 3,-0.91 8.335,-0.33 11.456,0.509 m 7.558,-6.444 c -1.723,0.937 -2.464,1.848 -4.113,2.142 -1.5,0.259 -3.676,-0.892 -5.556,-1.071 -1.566,-0.143 -6.289,-0.062 -8.151,0.402 -4.816,1.205 -6.723,3.865 -9.196,6.515 -1.158,1.232 -3.575,5.444 -6.381,4.516 -0.926,-0.473 1.056,-9.416 3.111,-12.138 11.374,-15.047 29.776,-1.794 30.286,-0.366 m 42.37,-11.692 4.788,4.936 -11.882,8.907 -5.473,-0.232 12.567,-13.611 z M 65.015,0.196 C 66.868,1.865 68.182,6.649 68.793,8.55 62.857,8.398 12.919,8.042 10.901,8.55 9.614,8.872 8.308,9.085 7.001,9.835 5.464,10.71 2.556,14.003 1.093,13.995 0.769,13.87 7.085,-0.509 10.048,-0.509 c 6.651,0 54.393,0.188 54.967,0.705 m 29.266,-169.458 c -0.139,10.54 0.435,22.054 0.074,32.157 -7.104,5.917 -40.806,23.936 -54.66,30.317 -5.928,2.732 -37.232,16.423 -47.919,32.862 -9.113,13.165 -6.696,37.03 6.224,44.045 1.935,1.053 7.816,3.517 8.937,1.973 0,0 -4.927,-1.902 -6.937,-3.249 -15.643,-10.469 -8.066,-32.558 -1.686,-41.287 10.059,-14.093 52.234,-28.917 56.504,-30.845 10.743,-4.864 23.274,-12.048 32.646,-17.752 2.01,-1.231 3.927,-2.677 6.224,-3.212 0.324,3.926 0.482,14.663 0.01,23.222 -7.567,3.526 -6.845,3.427 -14.624,6.23 -4.344,1.562 -16.634,6.801 -18.06,7.176 -3.139,0.821 -13.837,4.516 -16.448,5.792 -5.075,2.445 -10.225,4.391 -14.67,7.711 -4.224,3.133 -8.066,6.934 -10.447,11.772 -2.473,4.998 -5.205,10.085 -4.667,17.35 0.944,12.772 7.89,21.108 8.048,23.187 l -10.123,-0.098 c 1.037,4.07 7.15,8.791 10.307,10.933 3.445,2.348 8.613,4.293 8.28,5.311 C 24.839,-5.873 19.43,-5.819 13.448,-6.221 10.123,-9.077 7.335,-12.968 3.001,-15.44 c -3.316,-1.893 -8.289,-2.945 -13.114,-2.785 -5.548,0.187 -8.53,2.999 -13.337,4.293 -2.593,-0.571 -6.52,-3.24 -10.178,-6.613 -5.409,-4.989 -7.159,-12.013 -7.159,-12.013 0,0 13.762,6.247 15.874,4.56 -0.611,-2.793 -5.816,-7.586 -7.094,-10.058 -1.343,-2.57 -7.02,-12.254 -9.734,-19.59 -2.917,-7.89 -9.447,-28.079 -9.493,-38.119 4.112,-0.964 29.627,-6.926 33.119,-7.925 30.173,-8.649 56.948,-24.883 68.266,-31.273 12.929,-7.31 37.943,-27.695 44.13,-34.299 M 87.91,-44.143 c 6.26,0.241 14.808,3.945 16.003,5.141 -1.241,1.178 -10.984,4.123 -17.217,4.123 -5.603,0 -7.937,-1.401 -7.9,-5.194 0.028,-2.704 6.233,-4.177 9.114,-4.07 m 19.115,10.496 c -0.463,1.544 -5.437,7.907 -9.9,9.514 -12.142,4.355 -17.551,0.812 -20.051,-4.338 4.204,0.313 10.307,4.213 20.986,-1.115 2.454,-1.223 5.918,-3.775 8.965,-4.061 m -19.644,-25.445 22.181,0.16 c 0,0 -0.62,4.373 -1.093,8.122 -0.277,2.276 0.177,8.613 -1.694,8.773 -1.158,0.107 -9.086,-6.577 -17.745,-6.381 -13.697,0.313 -19.949,7.086 -20.227,14.012 -0.315,7.631 2.964,10.871 7.001,13.852 6.613,4.882 20.237,3.989 26.553,-1.089 1.927,-1.562 3.955,-5.766 5.195,-5.453 1.057,0.267 1.863,9.844 1.863,13.307 0,2.428 -0.159,11.879 -0.159,11.879 l -39.37,0 -19.801,-20.117 -14.281,14.7 c 0,0 -10.345,-5.873 -12.974,-8.961 2.898,-0.009 9.39,0.402 10.631,-0.375 -1.315,-1.722 -13.845,-16.333 -12.456,-30.479 0.611,-6.256 4.242,-12.78 8.001,-16.279 6.484,-6.006 25.803,-13.253 28.581,-13.95 9.345,-2.329 32.536,-11.049 34.712,-12.762 0,4.373 0.083,13.985 -0.685,14.458 -3.436,0.928 -16.884,3.856 -24.488,6.221 -12.085,3.784 -17.522,8.38 -19.893,10.754 -1.13,1.107 -2.444,2.687 -1.778,4.49 2.038,-0.072 1.463,-0.429 2.796,-1.054 2.029,-0.937 7.605,-1.901 9.809,-1.874 10.271,0.161 9.224,6.685 16.346,6.855 2.918,0.071 7.817,-0.411 9.799,-1.562 2.556,-1.464 3.176,-7.247 3.176,-7.247 m 42.325,-69.776 c 0.352,1.901 1.648,58.075 0,58.548 -0.315,-0.054 -5.409,-17.404 -25.793,-30.586 l 0,-7.282 c 0,-15.735 0.445,-31.381 0.445,-46.687 0,-2.383 -0.464,-4.945 1.111,-6.864 1.945,-0.026 2.917,2.017 4.001,3.214 1.195,1.32 2.593,2.543 3.779,3.855 6.038,6.703 10.881,14.164 16.003,22.063 1.028,1.597 0.176,2.267 0.454,3.739 m 0.472,-75.478 c 0.046,20.036 -0.027,35.236 -0.241,55.022 -0.147,0 -10.419,-14.789 -16.911,-21.625 -1.88,-1.972 -5.862,-4.293 -6.224,-6.855 -0.463,-3.239 3.687,-6.756 5.335,-8.782 2.232,-2.758 4.613,-5.328 6.668,-7.497 3.612,-3.837 6.705,-7.604 9.78,-11.566 0.936,-1.214 1.352,-1.286 1.593,1.303 m 20.218,223.294 c 0,4.061 0.333,8.684 -0.704,10.808 -0.926,1.892 -3.223,2.999 -5.621,3.668 -1.427,0.402 -74.648,22.482 -84.27,25.284 -9.613,2.794 -8.761,2.223 -8.678,-4.114 -0.158,-17.644 -1.463,-20.697 5.455,-21.465 7.113,-1.517 70.118,-15.136 70.118,-15.136 3.871,-1.027 10.697,-2.633 10.78,-8.908 0.074,-5.622 -0.25,-224.722 -0.25,-224.722 l 13.17,-21.634 0,256.219 z m 23.978,-335.124 c -2.983,11.754 -7.428,22.865 -12.225,33.629 -4.724,10.585 -9.466,21.063 -15.115,30.844 -5.613,9.702 -11.985,18.734 -18.227,27.847 -12.586,18.358 -27.394,34.298 -43.565,48.837 -16.374,14.708 -34.369,27.212 -54.012,38.77 -11.105,6.533 -22.645,12.968 -35.564,17.351 -4.826,1.633 -9.484,3.534 -14.448,4.926 -6.288,1.767 -16.374,4.748 -22.941,5.605 -0.287,-0.09 -9.122,-35.182 -33.896,-58.744 -19.736,-18.761 -53.902,-30.488 -54.356,-31.514 -0.509,-1.143 0.204,-41.368 0.204,-41.368 l 68.637,0.018 c 1.796,8.97 10.419,23.821 30.868,29.096 17.337,4.48 42.518,-16.271 43.14,-17.056 0.629,-0.776 1.157,-0.089 1.157,-0.089 0.722,0.41 13.707,6.702 16.032,8.38 -2.621,3.882 -11.864,10.335 -19.209,17.324 -8.659,8.237 -27.617,15.36 -27.636,17.662 1.529,0.804 1.473,0.804 2.714,0.491 2.408,-0.607 17.948,-4.641 32.517,-15.414 8.669,-6.398 20.43,-16.502 20.43,-16.502 0,0 14.467,7.131 21.284,11.13 12.77,7.488 21.375,16.386 22.042,14.708 0.49,-1.24 -8.948,-13.575 -27.276,-25.392 -2.602,-1.677 -9.919,-6.077 -9.919,-6.077 0,0 8.706,-9.533 9.336,-9.952 9.651,4.142 13.596,6.739 18.995,10.594 9.002,6.23 14.17,13.655 15.92,12.254 1.177,-0.937 -10.836,-15.815 -16.967,-20.108 -6.13,-4.293 -12.957,-7.559 -13.058,-8.425 -0.093,-0.75 7.428,-12.932 7.428,-12.932 0,0 7.752,2.677 14.336,6.676 9.577,5.818 14.698,14.699 16.254,13.86 0.195,-1.348 -2.806,-9.586 -14.022,-17.421 -7.835,-5.605 -13.567,-7.988 -13.567,-7.988 l 5.418,-13.691 c 0,0 21.004,4.319 27.635,8.246 l 9.132,-12.843 c 0,0 -5.465,-11.031 -8.512,-17.832 -0.647,-1.446 -3.231,-6.051 -3.158,-6.845 0.158,-1.714 3.298,-4.409 4.594,-6.096 1.927,-2.508 5.215,-5.578 6.659,-5.408 1.408,0.16 7.039,4.971 8.317,6.033 2.492,2.079 4.149,3.418 5.649,4.168 1.491,0.749 1.668,-0.697 1.408,-1.759 -1.713,-6.907 -3.278,-15.645 -3.732,-22.16 2.111,-1.767 7.177,-2.633 9.733,-3.329 2.557,-0.697 9.984,-2.401 13.56,-2.285 0.62,0.411 1.601,5.114 2.287,8.309 0.713,3.356 1.972,8.345 3.111,8.532 3.909,0.661 7.539,-12.584 9.363,-13.101 4.141,1.865 10.244,6.077 13.245,9.041 m 12.215,249.078 c 1.436,0.919 0.139,6.185 0.019,8.952 -0.102,2.115 -0.361,5.979 -1.223,7.684 -0.861,1.705 -28.682,3.008 -28.682,3.008 l 0,-24.115 0,-0.875 0,-19.76 c 0,-2.74 7.52,-4.855 10.706,-3.659 1.408,1.963 5.844,7.077 6.743,9.308 0.889,2.241 3.852,4.401 2.667,6.855 -0.945,1.963 -13.207,6.078 -18.107,7.568 6.502,1.027 26.673,4.266 27.877,5.034 m -12.206,-28.747 c 0,-0.009 -0.009,-0.018 -0.009,-0.027 -0.5,-1.178 -5.622,-7.345 -6.807,-7.667 -0.954,-0.258 -9.188,1.062 -9.817,2.526 0.241,-0.946 0.879,-143.781 0.879,-147.539 4.863,-8.648 12.123,-24.365 16.412,-35.494 2.796,-7.283 5.575,-16.423 7.779,-24.848 0.685,-2.65 2.177,-6.729 1.778,-8.782 -0.306,-1.526 -1.64,-2.624 -3.121,-3.596 -0.704,1.213 -2.556,1.427 -3.454,1.293 -0.278,-0.044 -12.707,-6.104 -12.893,-6.854 -0.064,-0.241 0.306,-1.383 0.946,-3.017 -3.584,-1.677 -6.864,-3.052 -7.085,-2.766 -0.38,0.517 -2.288,4.23 -3.066,5.739 -0.778,1.508 -2.168,4.391 -2.668,4.274 -0.5,-0.116 -1.008,-4.864 -1.555,-7.282 -0.575,-2.517 -1.584,-4.596 -2.89,-6.212 -3.047,0.169 -6.149,0.562 -9.215,1.107 0.065,0.178 0.102,0.321 0.102,0.419 -0.028,3.615 -18.801,7.694 -19.282,7.024 0.121,-0.642 0.212,-1.312 0.268,-2.008 -2.065,0.741 -4.677,1.794 -4.991,2.883 -0.26,0.874 0.379,2.784 0.666,4.069 0.306,1.384 0.648,2.776 0.89,3.856 0.611,2.776 3.074,7.791 2.305,8.327 -1.13,0.196 -3.954,-3.356 -5.612,-4.534 -1.723,-1.196 -3.862,-2.615 -5.631,-3.668 -1.056,0.589 -2.13,1.357 -3.186,2.223 0.926,0.633 1.519,1.15 1.565,1.454 0.278,1.839 -3.677,4.614 -5.557,6.426 -2.676,2.588 -4.778,6.024 -7.992,4.712 -0.139,-0.125 -0.268,-0.249 -0.398,-0.383 -1.029,1.437 -2.464,4.034 -2.39,5.364 0.037,0.696 0.861,1.696 1.557,2.784 3.065,4.82 10.187,16.904 12.447,21.768 l -3.668,6.444 -30.183,-10.174 c -0.231,0.937 -6.168,14.404 -13.225,26.864 -4.131,7.301 -18.254,23.223 -20.718,24.499 -8.178,-4.481 -15.957,-9.327 -24.45,-13.495 -2.269,1.339 -18.328,24.981 -39.722,19.894 -25.302,-6.007 -23.274,-28.622 -23.274,-28.622 l -91.521,0.839 c 0,0 -0.01,40.207 0.176,56.897 5.76,1.49 7.872,2.418 18.93,6.568 18.764,7.033 39.722,19.037 51.058,35.236 10.086,14.414 17.301,35.637 18.115,41.787 -3.287,1.329 -6.918,1.249 -10.706,1.946 -0.092,3.088 3.714,26.596 8.428,39.082 4.779,12.647 12.642,24.954 12.79,25.864 -2.964,-0.062 -6.038,-1.686 -9.4,-2.213 2.537,14.914 9.391,25.508 19.56,33.201 1.408,1.062 3.334,1.74 3.51,3.053 0.092,0.776 -0.296,2.766 -0.621,3.587 -1.879,4.642 -1.944,9.818 -1.111,15.637 0.084,0.598 26.228,0.598 26.228,0.598 0.612,3.597 -3.315,9.487 -2.954,13.548 0.602,0.33 7.474,-4.712 10.326,-6.337 2.64,-1.508 9.012,-4.677 11.873,-5.158 4.964,-0.839 63.432,0.151 63.432,0.151 L 74.249,5.123 114.878,5.114 c 1.455,-0.072 0.121,-20.67 -0.472,-27.337 -0.352,-3.981 -3.853,-9.782 -5.084,-11.924 -0.38,-0.643 2.815,-6.997 2.815,-6.997 l 3.056,-24.508 -33.137,0.045 c 0,0 -0.083,5.693 -0.834,7.327 -0.777,1.687 -1.601,2.838 -3.982,2.784 -2.566,-0.053 -3.371,-2.989 -5.631,-4.373 -2.223,-1.357 -5.474,-1.722 -6.15,-2.695 4.946,-2.99 9.188,-4.105 16.366,-5.302 3.639,-0.607 8.316,-1.026 9.26,-1.053 4.234,-0.134 9.596,0.099 9.596,0.099 l 0,-18.645 c 0,0 10.512,6.042 12.568,8.407 2.704,3.133 5.334,6.641 7.112,9.64 3.186,5.381 5.335,11.495 8.446,16.707 1.02,1.723 2.075,4.971 2.075,4.971 0,0 1.176,58.539 -0.704,59.476 -5.298,3.544 -62.616,12.719 -73.387,14.807 -3.13,0.607 -11.16,1.241 -11.355,5.435 -0.092,1.919 -0.379,27.427 -0.407,32.041 -0.019,4.614 2.417,3.856 14.29,0.732 4.372,-1.25 64.136,-19.555 84.316,-25.731 4.121,-1.267 6.668,-2.133 9.28,-4.569 1.796,-1.687 2.176,-3.044 2.418,-8.131 0.721,-15.441 0.971,-33.076 1.175,-48.204 0,0 2.566,4.32 4.992,3.668 0.695,-0.187 2.149,-1.169 3.473,-2.213 -0.973,-0.821 -1.667,-1.535 -1.75,-1.91 -0.139,-0.661 1.463,-1.624 1.88,-2.446 1.037,-2.079 3.158,-3.864 4.418,-5.257 0.63,-0.705 0.203,-2.48 1.593,-2.516 0.694,0.731 1.444,1.669 2.204,2.66 0.277,-0.429 0.556,-0.893 0.834,-1.393 1.037,-1.883 2.223,-3.82 2,-5.569 -0.278,-2.053 -4.927,-5.605 -4.381,-6.524 0.547,-0.91 18.902,-2.089 20.172,-4.695 0.277,-0.562 0.574,-1.892 0.861,-3.614 -0.991,-0.099 -1.954,-0.286 -2.871,-0.59 -0.334,-3.489 -0.547,-8.648 0.444,-11.557 1.213,-0.018 2.39,-0.107 3.576,-0.17 0.064,-3.178 -0.14,-5.623 -0.816,-5.837 -1.917,-0.598 -11.966,-3.026 -14.54,-3.427 -1.055,-0.161 -2.445,0.482 -3.112,-0.643 3.436,-1.249 9.233,-5.729 8.762,-6.872 -0.38,-0.901 -0.946,-1.883 -1.63,-2.919 -0.566,0.295 -1.112,0.447 -1.621,0.375 -2.547,-2.945 -7.372,-7.577 -9.012,-11.066 0.427,-0.527 1.38,-1.018 2.399,-1.446" /></g><g
               id="g3162"
               transform="translate(399.4824,717.4409)"><path
                 inkscape:connector-curvature="0"
                 id="path3164"
                 style="fill:#a9afb3;fill-opacity:1;fill-rule:nonzero;stroke:none"
                 d="m 0,0 -68.636,-0.018 c 0,0 -0.714,40.225 -0.204,41.368 0.454,1.026 34.619,12.754 54.355,31.514 24.774,23.562 33.61,58.655 33.897,58.744 6.566,-0.857 16.652,-3.838 22.94,-5.605 4.964,-1.392 9.623,-3.293 14.448,-4.926 12.92,-4.383 24.46,-10.818 35.564,-17.351 19.643,-11.558 37.638,-24.061 54.012,-38.77 16.171,-14.539 30.979,-30.478 43.565,-48.837 6.243,-9.113 12.615,-18.145 18.227,-27.847 5.649,-9.781 10.392,-20.259 15.115,-30.844 4.797,-10.763 9.242,-21.875 12.225,-33.629 -3.001,-2.964 -9.104,-7.176 -13.244,-9.041 -1.825,0.517 -5.454,13.762 -9.364,13.101 -1.138,-0.187 -2.398,-5.176 -3.111,-8.532 -0.685,-3.195 -1.667,-7.898 -2.287,-8.309 -3.575,-0.116 -11.003,1.588 -13.56,2.285 -2.555,0.696 -7.622,1.562 -9.733,3.329 0.454,6.515 2.02,15.253 3.732,22.16 0.26,1.062 0.083,2.508 -1.408,1.759 -1.5,-0.75 -3.157,-2.089 -5.649,-4.168 -1.278,-1.062 -6.908,-5.873 -8.317,-6.033 -1.444,-0.17 -4.732,2.9 -6.659,5.408 -1.296,1.687 -4.435,4.382 -4.594,6.096 -0.073,0.794 2.511,5.399 3.159,6.845 3.047,6.801 8.511,17.832 8.511,17.832 l -9.131,12.844 c -6.631,-3.928 -27.636,-8.247 -27.636,-8.247 l -5.418,13.691 c 0,0 5.732,2.383 13.567,7.988 11.216,7.836 14.217,16.073 14.023,17.421 -1.557,0.839 -6.678,-8.041 -16.254,-13.86 -6.585,-3.999 -14.337,-6.676 -14.337,-6.676 0,0 -7.521,12.183 -7.428,12.932 0.102,0.866 6.928,4.132 13.059,8.425 6.131,4.293 18.143,19.171 16.967,20.108 -1.75,1.402 -6.918,-6.024 -15.92,-12.254 -5.4,-3.855 -9.345,-6.452 -18.996,-10.594 -0.629,0.42 -9.335,9.952 -9.335,9.952 0,0 7.316,4.4 9.918,6.077 18.329,11.817 27.766,24.152 27.276,25.392 -0.667,1.678 -9.272,-7.22 -22.042,-14.708 -6.817,-3.999 -21.283,-11.13 -21.283,-11.13 0,0 -11.762,10.104 -20.431,16.503 -14.568,10.772 -30.109,14.806 -32.517,15.413 -1.241,0.313 -1.185,0.313 -2.713,-0.491 0.018,-2.302 18.976,-9.424 27.635,-17.662 7.345,-6.988 16.588,-13.442 19.209,-17.324 -2.325,-1.678 -15.309,-7.97 -16.032,-8.38 0,0 -0.527,-0.687 -1.157,0.089 C 73.387,12.825 48.206,33.576 30.868,29.096 10.419,23.821 1.796,8.97 0,0" /></g><g
               id="g3166"
               transform="translate(664.9971,904.0625)"><path
                 inkscape:connector-curvature="0"
                 id="path3168"
                 style="fill:#231f20;fill-opacity:1;fill-rule:nonzero;stroke:none"
                 d="m 0,0 c 4.27,-1.383 8.354,-5.266 6.474,-6.596 -1.87,-1.329 -8.289,-3.266 -12.169,-3.9 -1.64,-0.268 -3.196,-0.241 -4.733,-0.16 -0.018,0.865 -0.065,1.784 -0.111,2.721 3.111,-0.321 12.78,2.044 12.78,3.455 0,1.66 -10.854,3.614 -12.641,3.043 -0.278,-0.089 -0.5,-0.259 -0.676,-0.482 -0.157,1.294 -0.324,2.508 -0.5,3.579 C -7.687,2.071 -3.417,1.098 0,0" /></g><g
               id="g3170"
               transform="translate(654.5967,902.6255)"><path
                 inkscape:connector-curvature="0"
                 id="path3172"
                 style="fill:#ffffff;fill-opacity:1;fill-rule:nonzero;stroke:none"
                 d="m 0,0 c 1.787,0.571 12.642,-1.383 12.642,-3.043 0,-1.411 -9.669,-3.776 -12.781,-3.455 -0.12,1.982 -0.315,4.08 -0.537,6.016 C -0.5,-0.259 -0.277,-0.089 0,0" /></g><g
               id="g3174"
               transform="translate(654.458,896.1279)"><path
                 inkscape:connector-curvature="0"
                 id="path3176"
                 style="fill:#231f20;fill-opacity:1;fill-rule:nonzero;stroke:none"
                 d="m 0,0 c 0.046,-0.937 0.093,-1.856 0.111,-2.722 -1.185,0.063 -2.362,0.152 -3.575,0.17 -0.991,2.909 -0.778,8.068 -0.444,11.557 0.917,0.304 1.88,0.492 2.871,0.59 0.176,-1.072 0.343,-2.285 0.5,-3.579 C -1.556,4.784 -1.278,1.803 -0.954,0.438 -0.898,0.197 -0.556,0.054 0,0" /></g><g
               id="g3178"
               transform="translate(653.9209,902.1436)"><path
                 inkscape:connector-curvature="0"
                 id="path3180"
                 style="fill:#ffffff;fill-opacity:1;fill-rule:nonzero;stroke:none"
                 d="m 0,0 c 0.222,-1.937 0.417,-4.034 0.537,-6.016 -0.556,0.054 -0.898,0.197 -0.954,0.438 C -0.741,-4.212 -1.019,-1.231 0,0" /></g><g
               id="g3182"
               transform="translate(650.2715,857.6704)"><path
                 inkscape:connector-curvature="0"
                 id="path3184"
                 style="fill:#231f20;fill-opacity:1;fill-rule:nonzero;stroke:none"
                 d="M 0,0 C 1.01,1.74 -6.604,13.941 -8.529,12.281 -10.465,10.621 -11.9,9.344 -11.863,7.131 -11.826,4.927 -1.01,-1.75 0,0 m 2.937,0.714 c 0.184,-1.919 -0.409,-5.471 -1.863,-5.159 -1.463,0.321 -4.204,1.178 -6.066,2.803 -2.019,1.749 -4.121,3.231 -7.038,4.355 -0.704,0.268 -2.029,0.679 -3.241,1.187 1.527,3.57 5.667,8.211 8.233,12.138 2.268,-1.223 4.741,-4.909 6.019,-6.426 C 0.426,7.908 2.667,3.329 2.937,0.714" /></g><g
               id="g3186"
               transform="translate(641.7422,869.9512)"><path
                 inkscape:connector-curvature="0"
                 id="path3188"
                 style="fill:#ffffff;fill-opacity:1;fill-rule:nonzero;stroke:none"
                 d="M 0,0 C 1.926,1.66 9.539,-10.541 8.529,-12.281 7.52,-14.03 -3.297,-7.354 -3.334,-5.15 -3.371,-2.937 -1.936,-1.66 0,0" /></g><g
               id="g3190"
               transform="translate(647.2246,899.2695)"><path
                 inkscape:connector-curvature="0"
                 id="path3192"
                 style="fill:#a9afb3;fill-opacity:1;fill-rule:nonzero;stroke:none"
                 d="m 0,0 c 0.12,-2.767 1.417,-8.032 -0.019,-8.952 -1.204,-0.767 -21.375,-4.007 -27.877,-5.033 -1.241,0.383 -2.009,0.598 -2.009,0.562 l 0,24.115 c 0,0 27.821,-1.303 28.682,-3.007 C -0.361,5.98 -0.102,2.115 0,0" /></g><g
               id="g3194"
               transform="translate(646.002,941.0566)"><path
                 inkscape:connector-curvature="0"
                 id="path3196"
                 style="fill:#231f20;fill-opacity:1;fill-rule:nonzero;stroke:none"
                 d="m 0,0 c -0.037,-1.856 -6.085,-6.917 -7.825,-8.488 -1.353,-1.222 -2.825,-3.231 -4.242,-5.051 -0.76,1.205 -1.537,2.177 -2.371,3.15 0.694,-0.268 1.342,-0.125 1.842,0.366 1.149,1.134 9.836,8.425 8.105,9.13 -1.733,0.705 -14.069,-3.266 -12.643,-6.39 -0.25,0.295 -0.509,0.598 -0.768,0.919 -0.453,0.554 -1.445,1.437 -2.51,2.294 1.927,1.607 4.928,3.632 6.362,4.364 C -9.475,2.633 0.019,1.437 0,0" /></g><g
               id="g3198"
               transform="translate(637.5557,615.1787)"><path
                 inkscape:connector-curvature="0"
                 id="path3200"
                 style="fill:#231f20;fill-opacity:1;fill-rule:nonzero;stroke:none"
                 d="m 0,0 c 1.547,0.473 1.481,17.859 1.481,17.859 0,0 -6.806,-3.249 -7.139,-5.284 C -5.937,10.906 -1.547,-0.473 0,0 M 4.64,20.759 C 4.992,19.947 5.974,10.888 4.862,6.408 3.751,1.928 1.019,-9.398 -2.028,-5.159 c -2.76,3.829 -6.965,12.799 -8.835,17.547 2.815,1.312 5.806,2.802 7.631,3.82 1.751,0.981 3.769,2.222 6.002,3.641 0.574,0.366 1.185,0.732 1.768,1.116 0.037,-0.072 0.074,-0.134 0.102,-0.206" /></g><g
               id="g3202"
               transform="translate(641.6123,874.0835)"><path
                 inkscape:connector-curvature="0"
                 id="path3204"
                 style="fill:#231f20;fill-opacity:1;fill-rule:nonzero;stroke:none"
                 d="m 0,0 c 0.51,0.071 1.056,-0.081 1.621,-0.375 -2.565,-3.927 -6.706,-8.568 -8.233,-12.138 -1.02,0.429 -1.973,0.919 -2.4,1.446 C -7.372,-7.577 -2.547,-2.945 0,0" /></g><g
               id="g3206"
               transform="translate(641.5107,940.1641)"><path
                 inkscape:connector-curvature="0"
                 id="path3208"
                 style="fill:#ffffff;fill-opacity:1;fill-rule:nonzero;stroke:none"
                 d="m 0,0 c 1.731,-0.705 -6.956,-7.997 -8.104,-9.13 -0.5,-0.491 -1.149,-0.634 -1.843,-0.366 -0.824,0.955 -1.695,1.91 -2.696,3.097 l 0,0.009 C -14.068,-3.267 -1.732,0.705 0,0" /></g><g
               id="g3210"
               transform="translate(642.0938,636.1436)"><path
                 inkscape:connector-curvature="0"
                 id="path3212"
                 style="fill:#231f20;fill-opacity:1;fill-rule:nonzero;stroke:none"
                 d="m 0,0 c -0.583,-0.384 -1.194,-0.75 -1.769,-1.116 -2.232,-1.419 -4.251,-2.659 -6.002,-3.641 -1.824,-1.018 -4.815,-2.508 -7.63,-3.82 -0.64,1.633 -1.01,2.776 -0.946,3.016 0.186,0.75 12.615,6.811 12.893,6.855 C -2.556,1.428 -0.704,1.213 0,0" /></g><g
               id="g3214"
               transform="translate(639.0371,633.0376)"><path
                 inkscape:connector-curvature="0"
                 id="path3216"
                 style="fill:#ffffff;fill-opacity:1;fill-rule:nonzero;stroke:none"
                 d="M 0,0 C 0,0 0.065,-17.386 -1.481,-17.859 -3.028,-18.332 -7.418,-6.953 -7.14,-5.284 -6.807,-3.249 0,0 0,0" /></g><g
               id="g3218"
               transform="translate(637.4355,877.7158)"><path
                 inkscape:connector-curvature="0"
                 id="path3220"
                 style="fill:#a9afb3;fill-opacity:1;fill-rule:nonzero;stroke:none"
                 d="m 0,0 c 1.186,-2.454 -1.778,-4.614 -2.667,-6.854 -0.898,-2.231 -5.335,-7.346 -6.743,-9.309 -3.186,-1.196 -10.706,0.919 -10.706,3.659 l 0,19.76 c 0,0 0.75,0.116 2.01,0.312 C -13.207,6.078 -0.945,1.963 0,0" /></g><g
               id="g3222"
               transform="translate(631.5635,930.668)"><path
                 inkscape:connector-curvature="0"
                 id="path3224"
                 style="fill:#231f20;fill-opacity:1;fill-rule:nonzero;stroke:none"
                 d="m 0,0 c 0.834,-0.973 1.611,-1.946 2.371,-3.15 -0.76,-0.991 -1.51,-1.929 -2.204,-2.66 -1.39,0.036 -0.963,1.811 -1.593,2.517 -1.26,1.392 -3.381,3.177 -4.418,5.256 -0.417,0.822 -2.018,1.786 -1.88,2.446 0.083,0.375 0.778,1.089 1.75,1.91 1.066,-0.857 2.057,-1.74 2.51,-2.294 0.26,-0.321 0.519,-0.625 0.769,-0.919 l 0,-0.009 C -1.88,1.339 -0.898,0.33 0,0" /></g><g
               id="g3226"
               transform="translate(628.8682,933.7646)"><path
                 inkscape:connector-curvature="0"
                 id="path3228"
                 style="fill:#ffffff;fill-opacity:1;fill-rule:nonzero;stroke:none"
                 d="M 0,0 C 1.001,-1.187 1.871,-2.142 2.695,-3.097 1.797,-2.767 0.815,-1.758 0,0" /></g><g
               id="g3230"
               transform="translate(619.3291,885.2842)"><path
                 inkscape:connector-curvature="0"
                 id="path3232"
                 style="fill:#a9afb3;fill-opacity:1;fill-rule:nonzero;stroke:none"
                 d="m 0,0 c -1.26,-0.196 -2.01,-0.312 -2.01,-0.312 l 0,0.875 C -2.01,0.598 -1.241,0.384 0,0" /></g><g
               id="g3234"
               transform="translate(610.3086,987.1719)"><path
                 inkscape:connector-curvature="0"
                 id="path3236"
                 style="fill:#ffffff;fill-opacity:1;fill-rule:nonzero;stroke:none"
                 d="m 0,0 c 1.037,-2.124 0.704,-6.747 0.704,-10.808 l 0,-256.218 -13.17,21.633 c 0,0 0.324,219.1 0.25,224.723 -0.083,6.274 -6.909,7.88 -10.78,8.907 0,0 -63.005,13.619 -70.118,15.137 -6.918,0.767 -5.613,3.82 -5.455,21.464 -0.083,6.337 -0.935,6.908 8.678,4.115 C -80.269,26.15 -7.048,4.07 -5.621,3.668 -3.223,2.999 -0.926,1.892 0,0" /></g><g
               id="g3238"
               transform="translate(600.3154,622.8452)"><path
                 inkscape:connector-curvature="0"
                 id="path3240"
                 style="fill:#231f20;fill-opacity:1;fill-rule:nonzero;stroke:none"
                 d="m 0,0 c 0,-0.098 -0.037,-0.241 -0.102,-0.419 -6.056,1.079 -11.947,2.775 -16.791,4.676 -0.454,0.179 -1.241,0.437 -2.121,0.759 -0.055,0.696 -0.147,1.365 -0.268,2.008 C -18.801,7.693 -0.027,3.615 0,0" /></g><g
               id="g3242"
               transform="translate(594.0645,622.2026)"><path
                 inkscape:connector-curvature="0"
                 id="path3244"
                 style="fill:#231f20;fill-opacity:1;fill-rule:nonzero;stroke:none"
                 d="m 0,0 c -0.917,0.33 -6.761,2.276 -8.15,2.151 -0.019,-0.277 -0.343,-2.267 -1.019,-6.114 -0.685,-3.855 -2.491,-8.719 -1.14,-9.059 C -8.946,-13.37 -0.908,-5.096 0,0 M 6.149,0.223 C 5.464,-1.642 1.426,-7.586 0.676,-8.559 c -2.871,-3.677 -9.067,-8.916 -12.272,-10.63 -1.167,-0.625 -3.445,1.179 -3.464,3.445 -0.018,2.088 3.039,13.2 2.297,21.402 0.88,-0.321 1.667,-0.58 2.121,-0.758 C -5.798,2.999 0.093,1.303 6.149,0.223" /></g><g
               id="g3246"
               transform="translate(590.3223,887.0962)"><path
                 inkscape:connector-curvature="0"
                 id="path3248"
                 style="fill:#a9afb3;fill-opacity:1;fill-rule:nonzero;stroke:none"
                 d="m 0,0 c 1.648,-0.473 0.353,-56.647 0,-58.548 -0.277,-1.473 0.574,-2.142 -0.453,-3.74 -5.122,-7.898 -9.966,-15.359 -16.004,-22.062 -1.186,-1.312 -2.584,-2.535 -3.778,-3.856 -1.084,-1.196 -2.057,-3.239 -4.001,-3.213 -1.576,1.919 -1.112,4.481 -1.112,6.864 0,15.306 -0.445,30.951 -0.445,46.686 l 0,7.283 C -5.408,-17.404 -0.314,-0.054 0,0" /></g><g
               id="g3250"
               transform="translate(585.9141,624.3535)"><path
                 inkscape:connector-curvature="0"
                 id="path3252"
                 style="fill:#ffffff;fill-opacity:1;fill-rule:nonzero;stroke:none"
                 d="m 0,0 c 1.39,0.125 7.233,-1.821 8.15,-2.151 -0.908,-5.096 -8.946,-13.37 -10.308,-13.022 -1.352,0.34 0.454,5.204 1.139,9.059 0.676,3.847 1,5.837 1.019,6.114" /></g><g
               id="g3254"
               transform="translate(570.1787,898.4844)"><path
                 inkscape:connector-curvature="0"
                 id="path3256"
                 style="fill:#a9afb3;fill-opacity:1;fill-rule:nonzero;stroke:none"
                 d="m 0,0 -22.181,-0.161 c 0,0 -0.62,5.784 -3.176,7.247 -1.982,1.152 -6.881,1.634 -9.799,1.562 -7.122,-0.169 -6.075,-6.693 -16.346,-6.854 -2.204,-0.027 -7.78,0.937 -9.809,1.874 -1.333,0.625 -0.758,0.982 -2.796,1.053 -0.666,-1.803 0.648,-3.382 1.778,-4.489 2.371,-2.374 7.808,-6.97 19.893,-10.754 7.604,-2.366 21.052,-5.293 24.488,-6.221 0.768,-0.473 0.685,-10.086 0.685,-14.459 -2.176,1.714 -25.367,10.433 -34.712,12.763 -2.778,0.696 -22.097,7.943 -28.581,13.95 -3.759,3.498 -7.39,10.023 -8.001,16.279 -1.389,14.146 11.141,28.756 12.456,30.479 -1.241,0.776 -7.733,0.366 -10.631,0.375 2.629,3.087 12.974,8.96 12.974,8.96 l 14.281,-14.699 19.801,20.116 39.37,0 c 0,0 0.159,-9.451 0.159,-11.878 0,-3.463 -0.806,-13.04 -1.863,-13.308 -1.24,-0.312 -3.268,3.892 -5.195,5.454 -6.316,5.078 -19.94,5.97 -26.553,1.088 -4.037,-2.981 -7.316,-6.22 -7.001,-13.851 0.278,-6.926 6.53,-13.7 20.227,-14.012 8.659,-0.197 16.587,6.488 17.745,6.381 1.871,-0.161 1.417,-6.498 1.694,-8.773 C -0.62,4.373 0,0 0,0" /></g><g
               id="g3258"
               transform="translate(561.751,648.897)"><path
                 inkscape:connector-curvature="0"
                 id="path3260"
                 style="fill:#231f20;fill-opacity:1;fill-rule:nonzero;stroke:none"
                 d="M 0,0 C 1.88,-1.812 5.835,-4.587 5.557,-6.426 5.511,-6.729 4.918,-7.247 3.992,-7.88 c -2.639,2.159 -5.205,4.953 -7.437,7.291 -1.167,1.205 -3.029,2.66 -4.446,4.284 -0.148,0.17 -0.314,0.384 -0.5,0.634 0.13,0.134 0.26,0.258 0.399,0.383 C -4.778,6.024 -2.677,2.588 0,0" /></g><g
               id="g3262"
               transform="translate(558.9541,642.3643)"><path
                 inkscape:connector-curvature="0"
                 id="path3264"
                 style="fill:#231f20;fill-opacity:1;fill-rule:nonzero;stroke:none"
                 d="M 0,0 C 0.176,1.865 -3.408,5.426 -4.64,5.319 -6.214,5.176 -8.159,1.99 -9.965,0.901 c -1.806,-1.089 -7.085,-4.266 -6.678,-5.658 0.593,-2.062 6.02,-0.839 7.697,-0.232 C -1.426,-2.24 -0.111,-1.25 0,0 M -0.648,5.944 C 1.584,3.605 4.149,0.812 6.789,-1.348 3.631,-3.535 -3.445,-7.051 -6.048,-7.658 c -3.741,-0.892 -15.281,-3.65 -15.818,1.125 -0.453,3.945 5.261,7.166 7.993,9.21 1.657,1.241 3.352,2.508 4.677,3.856 1.342,1.374 2.315,3.034 3.602,4.328 0.186,-0.249 0.352,-0.464 0.5,-0.633 1.417,-1.624 3.279,-3.079 4.446,-4.284" /></g><g
               id="g3266"
               transform="translate(554.3145,647.6836)"><path
                 inkscape:connector-curvature="0"
                 id="path3268"
                 style="fill:#ffffff;fill-opacity:1;fill-rule:nonzero;stroke:none"
                 d="m 0,0 c 1.231,0.107 4.815,-3.454 4.64,-5.319 -0.112,-1.25 -1.426,-2.241 -8.947,-4.99 -1.676,-0.607 -7.103,-1.829 -7.696,0.232 -0.407,1.393 4.871,4.57 6.678,5.659 C -3.52,-3.329 -1.574,-0.143 0,0" /></g><g
               id="g3270"
               transform="translate(554.9717,820.3105)"><path
                 inkscape:connector-curvature="0"
                 id="path3272"
                 style="fill:#ffffff;fill-opacity:1;fill-rule:nonzero;stroke:none"
                 d="m 0,0 c 0.361,-10.103 -0.213,-21.616 -0.074,-32.157 -6.187,6.605 -31.201,26.99 -44.13,34.299 -11.317,6.39 -38.093,22.625 -68.266,31.273 -3.492,1 -29.007,6.961 -33.119,7.925 0.047,10.041 6.576,30.229 9.493,38.119 2.714,7.336 8.391,17.02 9.734,19.59 1.278,2.472 6.483,7.265 7.094,10.059 -2.112,1.686 -15.874,-4.561 -15.874,-4.561 0,0 1.75,7.024 7.159,12.013 3.658,3.374 7.585,6.043 10.178,6.614 4.807,-1.295 7.789,-4.106 13.337,-4.293 4.825,-0.161 9.798,0.892 13.114,2.784 4.334,2.473 7.122,6.364 10.447,9.22 5.982,0.402 11.391,0.348 17.846,0.553 0.333,-1.017 -4.835,-2.963 -8.28,-5.31 -3.157,-2.142 -9.27,-6.863 -10.307,-10.933 l 10.123,0.098 c -0.158,-2.08 -7.104,-10.416 -8.048,-23.187 -0.538,-7.265 2.194,-12.353 4.667,-17.351 2.381,-4.837 6.223,-8.639 10.447,-11.772 4.445,-3.319 9.595,-5.265 14.67,-7.711 2.611,-1.276 13.309,-4.971 16.448,-5.792 1.426,-0.375 13.716,-5.614 18.06,-7.176 7.779,-2.802 7.057,-2.704 14.624,-6.229 0.472,-8.559 0.314,-19.296 -0.01,-23.223 -2.297,0.535 -4.214,1.981 -6.224,3.213 -9.372,5.703 -21.903,12.888 -32.646,17.751 -4.27,1.929 -46.445,16.753 -56.504,30.846 -6.38,8.728 -13.957,30.817 1.686,41.286 2.01,1.348 6.937,3.249 6.937,3.249 -1.121,1.544 -7.002,-0.919 -8.937,-1.972 -12.92,-7.016 -15.337,-30.881 -6.224,-44.045 C -91.892,46.74 -60.588,33.049 -54.66,30.318 -40.806,23.937 -7.104,5.917 0,0" /></g><g
               id="g3274"
               transform="translate(529.4102,965.9663)"><path
                 inkscape:connector-curvature="0"
                 id="path3276"
                 style="fill:#ffffff;fill-opacity:1;fill-rule:nonzero;stroke:none"
                 d="m 0,0 c -0.611,-1.901 -1.926,-6.685 -3.778,-8.354 -0.575,-0.518 -48.317,-0.705 -54.967,-0.705 -2.963,0 -9.28,14.378 -8.956,14.503 1.464,0.009 4.372,-3.284 5.909,-4.159 C -60.486,0.535 -59.18,0.321 -57.893,0 -55.874,-0.509 -5.937,-0.152 0,0" /></g><g
               id="g3278"
               transform="translate(515.333,944.2158)"><path
                 inkscape:connector-curvature="0"
                 id="path3280"
                 style="fill:#a9afb3;fill-opacity:1;fill-rule:nonzero;stroke:none"
                 d="M 0,0 -4.788,-4.936 -17.355,8.675 -11.882,8.907 0,0 z" /></g><g
               id="g3282"
               transform="translate(464.062,953.1143)"><path
                 inkscape:connector-curvature="0"
                 id="path3284"
                 style="fill:#a9afb3;fill-opacity:1;fill-rule:nonzero;stroke:none"
                 d="M 0,0 C 1.648,-0.294 2.39,-1.205 4.112,-2.142 3.603,-3.57 -14.8,-16.824 -26.173,-1.776 c -2.056,2.722 -4.037,11.665 -3.112,12.138 2.806,0.928 5.224,-3.284 6.382,-4.516 2.472,-2.651 4.38,-5.31 9.196,-6.515 1.862,-0.464 6.585,-0.545 8.15,-0.402 C -3.677,-0.893 -1.5,0.259 0,0" /></g><g
               id="g3286"
               transform="translate(457.9678,964.7168)"><path
                 inkscape:connector-curvature="0"
                 id="path3288"
                 style="fill:#a9afb3;fill-opacity:1;fill-rule:nonzero;stroke:none"
                 d="M 0,0 C 1.139,-1.963 2.028,-4.829 2.649,-7.301 -0.472,-8.14 -5.807,-8.72 -8.807,-7.81 c -2.825,0.857 -6.965,5.338 -8.151,7.658 L 0,0 z" /></g></g></g></g><g
         transform="matrix(0.21610112,0,0,0.21610112,701.92541,272.5618)"
         id="g3290"><g
           id="g3292" /><g
           id="g3298"><g
             id="g3300"
             clip-path="url(#clipPath3294)"><g
               id="g3302"
               transform="translate(374.2148,820.8125)"><path
                 inkscape:connector-curvature="0"
                 id="path3304"
                 style="fill:#231f20;fill-opacity:1;fill-rule:nonzero;stroke:none"
                 d="m 0,0 c 0.661,2.55 4.521,28.564 5.558,34.735 -6.292,1.191 -15.363,2.226 -22.008,2.716 -51.829,3.787 -84.435,-4.75 -84.435,-4.75 0,0 -21.149,-35.782 -23.655,-38.549 2.337,-0.687 19.367,0.64 21.815,1.297 1.299,0.345 10.236,10.509 12.314,13.389 5.112,7.084 8.827,15.28 10.307,15.182 0.983,-0.069 -3.951,-12.096 -7.814,-17.104 -1.527,-1.971 -7.717,-9.794 -9.088,-11.467 2.751,-0.099 17.857,0.87 19.769,1.508 1.477,0.486 7.341,7.887 10.468,13.18 3.137,5.284 8.184,15.037 8.861,14.679 0.707,-0.334 -2.335,-8.304 -4.816,-13.667 -3.049,-6.586 -8.877,-13.501 -8.576,-14.084 0.877,-0.597 17.831,0.185 19.871,1.08 0.931,0.409 3.848,2.403 4.743,3.785 4.045,6.27 6.808,14.362 8.319,17.379 1.512,3.024 4.216,9.345 4.216,9.345 0,0 7.088,0.098 11.546,0.157 4.457,0.067 10.888,-1.115 11.972,-1.414 0.835,-0.226 -1.188,-19.456 -1.81,-23.538 -7.222,-7.995 -22.546,-17.486 -41.609,-25.978 -16.291,-7.256 -48.028,-18.376 -54.743,-19.37 0,0 0.18,-12.353 0.362,-12.904 6.082,0.736 10.277,1.659 15.123,3.137 1.606,0.487 5.884,4.196 7.536,3.464 -0.713,-1.991 -3.065,-5.63 -8.828,-8.441 -4.346,-2.118 -9.77,-3.32 -14.212,-4.351 l 0.303,-11.074 c 6.683,1.472 11.375,2.25 16.493,4.727 1.723,0.834 4.894,3.654 7.049,3.518 0.477,-1.826 -5.9,-8.118 -10.92,-10.521 -4.247,-2.027 -12.176,-4.421 -12.176,-4.421 l 0.557,-10.513 c 0.554,0.366 6.935,0.79 13.088,3.134 3.873,1.481 9.459,5.658 10.506,4.799 1.447,-1.203 -8.48,-10.145 -13.988,-12.22 -3.685,-1.389 -6.548,-2.658 -9.607,-4.193 0.188,-3.287 0.003,-2.118 0.215,-6.122 l 30.904,0.567 c 0.615,5.327 0.075,57.3 0.078,61.923 3.292,0.794 41.477,14.646 58.027,25.026 C -7.601,-9.25 -0.505,-1.948 0,0 M 17.888,43.369 C 15.831,23.224 12.132,5.344 9.458,-6.167 c -9.524,-9.846 -18.553,-17.76 -31.451,-24.46 -10.275,-5.343 -35.346,-15.394 -43.368,-17.063 0.297,-10.16 -0.112,-61.256 -0.168,-63.539 -2.492,-0.105 -46.407,-0.014 -51.45,-0.002 0.112,2.794 -1.668,71.91 -0.812,78.285 4.207,0.585 46.436,13.85 55.39,17.503 4.359,1.773 9.121,4.067 13.773,6.484 1.011,0.269 1.883,0.554 2.586,0.863 0.763,0.334 1.554,0.949 2.343,1.761 10.818,5.914 19.958,11.81 20.282,12.503 0.764,1.678 2.14,10.932 2.009,13 -1.45,0.189 -6.277,0.417 -7.814,-0.004 -1.387,-0.379 -8.278,-19.167 -14.477,-25.499 -1.613,-0.883 -3.266,-1.758 -4.929,-2.624 -8.505,-2.259 -26.531,-3.055 -33.558,-3.582 -15.015,-1.126 -58.291,-3.371 -58.648,-1.568 -0.338,1.671 12.346,19.693 18.358,29.041 8.482,13.201 14.145,24.541 14.985,25.164 8.518,1.912 36.315,7.528 59.186,8.369 36.067,0.539 60.646,-3.925 66.193,-5.096" /></g><g
               id="g3306"
               transform="translate(379.7725,855.5474)"><path
                 inkscape:connector-curvature="0"
                 id="path3308"
                 style="fill:#a9afb3;fill-opacity:1;fill-rule:nonzero;stroke:none"
                 d="m 0,0 c -1.037,-6.17 -4.897,-32.185 -5.558,-34.735 -0.505,-1.948 -7.601,-9.249 -18.285,-15.953 -16.55,-10.381 -54.735,-24.233 -58.027,-25.027 -0.003,-4.623 0.537,-56.596 -0.078,-61.923 l -30.904,-0.567 c -0.212,4.004 -0.026,2.835 -0.214,6.122 3.059,1.535 5.921,2.804 9.606,4.193 5.508,2.076 15.435,11.017 13.988,12.22 -1.047,0.859 -6.632,-3.318 -10.506,-4.799 -6.152,-2.344 -12.534,-2.768 -13.088,-3.134 l -0.557,10.513 c 0,0 7.929,2.394 12.177,4.422 5.019,2.402 11.397,8.694 10.92,10.521 -2.156,0.135 -5.327,-2.685 -7.049,-3.519 -5.119,-2.477 -9.811,-3.254 -16.494,-4.727 l -0.303,11.074 c 4.443,1.031 9.867,2.233 14.213,4.351 5.762,2.811 8.114,6.45 8.827,8.441 -1.652,0.732 -5.93,-2.976 -7.535,-3.464 -4.847,-1.478 -9.041,-2.401 -15.123,-3.136 -0.182,0.55 -0.363,12.903 -0.363,12.903 6.716,0.995 38.453,12.114 54.743,19.37 19.064,8.492 34.388,17.983 41.61,25.978 0.621,4.083 2.645,23.313 1.809,23.539 -1.084,0.298 -7.515,1.481 -11.972,1.413 -4.458,-0.058 -11.546,-0.157 -11.546,-0.157 0,0 -2.704,-6.32 -4.215,-9.345 -1.512,-3.017 -4.275,-11.109 -8.319,-17.379 -0.896,-1.382 -3.813,-3.376 -4.744,-3.785 -2.04,-0.894 -18.993,-1.677 -19.87,-1.08 -0.302,0.584 5.526,7.499 8.576,14.084 2.48,5.363 5.522,13.333 4.815,13.667 -0.677,0.358 -5.724,-9.395 -8.861,-14.679 -3.126,-5.293 -8.991,-12.694 -10.467,-13.18 -1.913,-0.638 -17.019,-1.607 -19.769,-1.508 1.37,1.673 7.56,9.496 9.087,11.467 3.864,5.008 8.798,17.035 7.814,17.104 -1.48,0.098 -5.195,-8.098 -10.307,-15.182 -2.078,-2.88 -11.014,-13.043 -12.313,-13.389 -2.448,-0.657 -19.478,-1.984 -21.816,-1.297 2.506,2.768 23.655,38.549 23.655,38.549 0,0 32.606,8.537 84.435,4.75 C -15.363,2.227 -6.292,1.191 0,0" /></g><g
               id="g3310"
               transform="translate(330.5161,814.4771)"><path
                 inkscape:connector-curvature="0"
                 id="path3312"
                 style="fill:#231f20;fill-opacity:1;fill-rule:nonzero;stroke:none"
                 d="M 0,0 C -0.79,-0.812 -1.58,-1.426 -2.343,-1.76 -3.046,-2.069 -3.918,-2.354 -4.929,-2.624 -3.266,-1.757 -1.613,-0.883 0,0" /></g></g></g></g><g
         transform="matrix(0.21610112,0,0,0.21610112,812.49617,442.44461)"
         id="g3314"><path
           inkscape:connector-curvature="0"
           id="path3316"
           style="fill:#e22739;fill-opacity:1;fill-rule:nonzero;stroke:none"
           d="m 0,0 1.627,15.937 -3.135,0.384 -8.955,10.78 -4.009,-8.798 -3.424,3.103 1.261,-11.417 -10.653,15.891 -1.415,-3.399 -15.746,6.498 3.799,-16.606 -3.588,-0.831 13.615,-12.888 -10.759,2.886 2.492,-3.892 -9.339,-2.497 9.147,-10.617 -0.139,-3.151 15.985,-1.04 1.821,-4.184 11.193,9.404 7.409,-11.739 8.457,-1.928 -1.849,8.593 -10.691,8.092 10.72,8.93 L 0,0 z" /></g><g
         transform="matrix(0.21610112,0,0,0.21610112,812.49617,442.44461)"
         id="g3318"><path
           inkscape:connector-curvature="0"
           id="path3320"
           style="fill:none;stroke:#ffffff;stroke-width:2;stroke-linecap:butt;stroke-linejoin:miter;stroke-miterlimit:4;stroke-opacity:1;stroke-dasharray:none"
           d="m 0,0 1.627,15.937 -3.135,0.384 -8.955,10.78 -4.009,-8.798 -3.424,3.103 1.261,-11.417 -10.653,15.891 -1.415,-3.399 -15.746,6.498 3.799,-16.606 -3.588,-0.831 13.615,-12.888 -10.759,2.886 2.492,-3.892 -9.339,-2.497 9.147,-10.617 -0.139,-3.151 15.985,-1.04 1.821,-4.184 11.193,9.404 7.409,-11.739 8.457,-1.928 -1.849,8.593 -10.691,8.092 10.72,8.93 L 0,0 z" /></g><g
         transform="matrix(0.21610112,0,0,0.21610112,811.07357,478.70348)"
         id="g3322"><path
           inkscape:connector-curvature="0"
           id="path3324"
           style="fill:#e22739;fill-opacity:1;fill-rule:nonzero;stroke:none"
           d="M 0,0 11.339,-7.27 18.751,0 0,0 z" /></g></g></g></svg>